<mxfile host="app.diagrams.net" modified="2023-08-29T21:43:52.053Z" agent="Mozilla/5.0 (Macintosh; Intel Mac OS X 10_15_7) AppleWebKit/605.1.15 (KHTML, like Gecko) Version/16.3 Safari/605.1.15" version="21.6.9" etag="_3XXqoIQry_Gcrn_xN6s" type="github">
  <diagram name="Page-1" id="tP-dfMyf-CwwQvvNGn5l">
    <mxGraphModel>
      <root>
        <mxCell id="0" />
        <mxCell id="1" parent="0" />
      </root>
    </mxGraphModel>
  </diagram>
</mxfile>
